<?xml version="1.0" encoding="UTF-8" standalone="no"?>
<svg
   xmlns:dc="http://purl.org/dc/elements/1.1/"
   xmlns:cc="http://creativecommons.org/ns#"
   xmlns:rdf="http://www.w3.org/1999/02/22-rdf-syntax-ns#"
   xmlns:svg="http://www.w3.org/2000/svg"
   xmlns="http://www.w3.org/2000/svg"
   id="bf2b567e-7839-11ec-b7fd-0242ac110005"
   version="1.1"
   width="1133.85826772pt"
   viewBox="0 0 1133.85826772 850.393700787"
   height="850.393700787pt">
  <metadata
     id="metadata143">
    <rdf:RDF>
      <cc:Work
         rdf:about="">
        <dc:format>image/svg+xml</dc:format>
        <dc:type
           rdf:resource="http://purl.org/dc/dcmitype/StillImage" />
      </cc:Work>
    </rdf:RDF>
  </metadata>
  <defs
     id="defs141" />
  <g
     id="g2" />
  <g
     id="g132">
    <g
       id="g130">
      <path
         id="path4"
         d="M 0.0,850.3937 L 0.0,0.0 1133.8583,0.0 1133.8583,850.3937 0.0,850.3937 Z"
         style="fill:none;" />
      <g
         id="g128">
        <path
           id="path6"
           d="M 794.0404,770.9901 L 339.8176,770.9901 209.8425,345.559 566.929,79.4035 924.0155,345.559 794.0404,770.9901 Z"
           style="fill-rule:evenodd;fill:#00539d;" />
        <path
           id="path8"
           d="M 765.172,730.446 L 878.611,358.3391 566.929,126.1425 255.2471,358.3391 368.686,730.446 765.172,730.446 Z"
           style="fill-rule:evenodd;fill:#ffffff;" />
        <path
           id="path10"
           d="M 567.8982,614.9157 C 596.1866,593.1692 624.475,571.4228 652.7634,549.6764 619.3249,475.934 618.308,414.7802 651.7465,341.0379 622.666,320.9149 593.5877,300.7897 564.5094,280.6644 539.712,305.6648 511.6914,327.8432 476.5573,343.7971 509.9959,417.5394 515.5047,475.934 482.0661,549.6764 510.6768,571.4228 539.2875,593.1692 567.8982,614.9157 Z"
           style="fill-rule:evenodd;fill:#20221d;" />
        <path
           id="path12"
           d="M 666.3128,475.9479 C 642.7915,505.1319 658.528,537.147 664.5796,549.419 676.0053,569.66 665.9283,582.3216 653.9586,588.01 L 635.8555,602.4853 648.8825,617.2883 702.0527,574.43 C 721.8459,558.2941 719.8764,498.9504 690.9549,469.9534 702.1719,505.8571 692.861,526.599 680.366,534.4598 672.5231,519.5315 667.9589,496.965 666.3128,475.9479 Z"
           style="fill-rule:evenodd;fill:#ffed00;" />
        <path
           id="path14"
           d="M 666.3127,475.9487 C 642.7908,505.1325 658.5272,537.1472 664.5793,549.4185 665.4242,550.915 666.1472,552.3679 666.7656,553.7825 684.3052,552.4219 694.5,525.5674 680.3663,534.4591 672.5233,519.531 667.959,496.9655 666.3127,475.9487 Z"
           style="fill-rule:evenodd;fill:#009340;" />
        <path
           id="path16"
           d="M 664.4922,482.4955 C 656.529,494.9098 655.2695,507.6097 656.7468,518.7435 658.4471,531.5515 663.8006,542.4292 666.7726,548.4569 L 666.7831,548.4796 C 667.3649,549.5178 667.9032,550.5579 668.391,551.584 672.7637,560.7875 672.8229,568.4981 670.391,574.7174 667.9503,580.9733 663.0219,585.6404 657.4489,588.7849 656.7799,589.1612 656.0656,589.5358 655.313,589.8999 L 639.2282,602.7601 649.1791,614.0664 700.4893,572.707 700.5677,572.646 C 700.9928,572.2941 701.4458,571.8778 701.9196,571.4057 L 702.0294,571.3011 C 710.0187,563.2125 713.6562,546.7357 712.4768,528.6683 711.374,511.7681 706.024,493.6015 696.047,479.642 698.6863,491.49 698.9458,501.4862 697.5957,509.7142 695.425,522.935 689.0855,531.6909 681.6972,536.3388 680.591,537.0322 679.0945,536.7534 678.3611,535.7169 678.3019,535.635 678.2514,535.5496 678.2061,535.4625 L 678.2026,535.4643 C 674.4065,528.238 671.3683,519.3097 669.053,509.6654 666.9695,500.9915 665.4573,491.6886 664.4922,482.4955 Z M 651.963,519.308 C 650.1494,505.6272 652.1755,489.7427 664.3929,474.5829 L 664.3946,474.5846 C 664.8005,474.0812 665.4242,473.7397 666.1437,473.6892 667.4712,473.5969 668.6245,474.5341 668.7168,475.7815 669.5757,486.7393 671.2429,498.1449 673.7672,508.6585 675.7445,516.9021 678.2496,524.5622 681.2913,530.9714 686.6727,526.6579 691.1273,519.4404 692.8328,509.0522 694.4599,499.1379 693.5732,486.3926 688.6395,470.5987 L 688.643,470.597 C 688.3974,469.8043 688.6256,468.9123 689.3102,468.3061 690.2806,467.449 691.8067,467.4925 692.7143,468.4019 694.3014,469.9924 695.8118,471.6718 697.2351,473.4192 709.5239,488.4936 716.0376,509.2456 717.2885,528.3861 718.5445,547.619 714.4558,565.3797 705.5589,574.3829 L 705.4317,574.5206 C 704.9178,575.0327 704.3481,575.5467 703.7209,576.0623 L 703.6147,576.1529 650.4456,619.0105 650.4421,619.007 650.4177,619.0279 C 649.3934,619.8258 647.8725,619.6951 647.0258,618.7352 L 634.082,604.0283 634.0175,603.9587 C 633.1552,603.0075 633.2789,601.5755 634.2928,600.7619 L 652.3968,586.2867 652.4002,586.2902 C 652.5448,586.1735 652.7051,586.0725 652.8811,585.9888 653.5448,585.6753 654.2469,585.3077 654.9751,584.8965 659.7014,582.2294 663.8581,578.3288 665.8685,573.1774 667.8945,567.9929 667.7865,561.4391 663.9835,553.4341 663.5549,552.5317 663.0654,551.5875 662.5219,550.6189 662.4731,550.5422 662.4261,550.4638 662.386,550.3802 659.3077,544.14 653.7626,532.8703 651.963,519.308 Z"
           style="fill-rule:evenodd;fill:#009340;" />
        <path
           id="path18"
           d="M 763.7098,543.3801 C 756.318,552.8339 750.7516,553.2655 745.4837,554.6831 741.9331,554.9988 733.1562,551.6022 729.8378,555.6944 723.309,555.9584 720.2147,554.0185 713.7356,558.9612 691.7683,561.6735 678.6524,574.8005 675.848,591.1242 695.7411,601.1266 723.4574,597.0804 739.1536,573.6618 746.0642,564.1242 758.9392,564.4985 763.7098,543.3801 Z M 677.0593,587.5991 C 687.4956,575.4065 705.448,565.4569 723.3419,568.1062 703.7804,571.2375 686.4005,580.8198 682.4681,590.4091 L 677.0593,587.5991 Z"
           style="stroke-linejoin:round;fill-rule:evenodd;stroke:#009340;stroke-linecap:round;stroke-miterlimit:10.433;stroke-width:0.7109;fill:#ffed00;" />
        <path
           id="path20"
           d="M 787.021,480.8709 C 782.6092,491.2185 777.575,493.1568 773.475,495.7238 770.3871,496.9745 761.0196,495.33 759.3846,500.2222 753.079,501.9704 749.6019,500.9616 744.8789,507.1045 725.8841,514.2944 717.0867,530.3462 719.2139,545.0954 739.9467,550.3953 764.5207,539.6365 772.5659,514.4221 776.1733,504.1988 788.4472,501.1412 787.021,480.8709 Z M 719.4994,541.9583 C 725.8056,528.2248 739.611,514.8782 756.6335,513.0194 739.3772,520.7137 726.2465,533.1827 724.7151,543.4716 722.9765,542.9672 721.5753,542.024 719.4994,541.9583 Z"
           style="stroke-linejoin:round;fill-rule:evenodd;stroke:#009340;stroke-linecap:round;stroke-miterlimit:10.433;stroke-width:0.6043;fill:#ffed00;" />
        <path
           id="path22"
           d="M 795.4587,418.079 C 793.7181,428.4383 789.591,431.0241 786.3358,434.4954 783.6955,436.4511 774.9272,436.8206 774.1594,441.7476 769.2888,444.6485 765.853,444.013 762.9834,451.0858 746.4749,461.4291 742.2745,477.8509 747.8673,491.3772 768.0963,491.5888 788.2699,476.7639 789.7503,451.8732 790.7476,441.8289 801.3607,436.9126 795.4587,418.079 Z M 747.2768,488.2808 C 749.7089,474.7001 759.4988,459.6743 774.701,454.068 760.5513,464.6666 750.9664,479.1871 752.7379,488.4763 750.3791,488.221 748.5587,488.1559 747.2768,488.2808 Z"
           style="stroke-linejoin:round;fill-rule:evenodd;stroke:#009340;stroke-linecap:round;stroke-miterlimit:10.433;stroke-width:0.6043;fill:#ffed00;" />
        <path
           id="path24"
           d="M 718.9186,424.0173 C 716.8799,433.6457 719.6193,437.143 721.2865,441.1609 722.9351,443.6633 730.521,446.5859 729.4985,451.1475 732.7833,455.1422 736.0247,455.6009 736.1116,462.6728 747.0692,476.6618 745.105,492.3519 735.5238,502.5937 717.6561,496.7874 705.0188,477.7702 712.2942,455.4361 714.8784,446.305 707.2366,438.8363 718.9186,424.0173 Z M 737.1103,500.0449 C 739.651,487.3779 736.2172,471.26 724.7763,461.8249 733.5709,475.3398 736.9985,490.9525 732.239,498.5991 734.402,499.0733 736.0257,499.5552 737.1103,500.0449 Z"
           style="stroke-linejoin:round;fill-rule:evenodd;stroke:#009340;stroke-linecap:round;stroke-miterlimit:10.433;stroke-width:0.6457;fill:#ffed00;" />
        <path
           id="path26"
           d="M 782.8915,352.3315 C 784.4964,362.1649 781.3905,365.2266 778.7824,369.3999 776.9035,371.4524 769.1987,374.2413 770.0398,378.6193 766.2819,382.7243 762.8327,382.5197 762.3311,389.523 749.792,403.3861 750.3976,419.1112 758.8236,430.4313 777.0688,425.5628 791.6412,407.4922 786.9384,384.491 785.3335,374.6576 793.3469,367.559 782.8915,352.3315 Z M 757.292,427.6354 C 755.9572,414.031 761.1388,398.1083 773.8669,389.6664 763.7044,402.5886 758.5614,417.9726 762.5815,426.3262 760.8183,426.7626 759.0937,426.6603 757.292,427.6354 Z"
           style="stroke-linejoin:round;fill-rule:evenodd;stroke:#009340;stroke-linecap:round;stroke-miterlimit:10.433;stroke-width:0.6043;fill:#ffed00;" />
        <path
           id="path28"
           d="M 749.72,294.3983 C 753.792,302.8853 751.8444,306.6928 750.5964,310.8892 749.3433,312.86 742.9265,317.7397 744.4718,321.2659 742.2474,326.2532 739.4541,326.9234 740.5868,333.3321 733.4961,348.951 737.8602,362.9349 748.5002,371.5163 764.5499,362.6552 772.7477,342.3171 762.0821,322.6079 758.0101,314.1208 763.4403,305.5809 749.72,294.3983 Z M 746.6782,369.1699 C 741.6196,357.0226 742.1423,341.3095 751.7598,330.6514 745.5045,344.9565 745.3994,360.0127 750.7245,366.5289 749.7482,367.3199 748.0722,367.722 746.6782,369.1699 Z"
           style="stroke-linejoin:round;fill-rule:evenodd;stroke:#009340;stroke-linecap:round;stroke-miterlimit:10.433;stroke-width:0.6043;fill:#ffed00;" />
        <path
           id="path30"
           d="M 704.181,245.5003 C 710.2351,252.7727 708.9624,256.0214 709.0772,260.3716 708.4924,262.5973 703.5736,268.5553 706.1535,271.5002 705.7751,276.1314 702.5188,277.3569 706.0962,282.8872 703.0923,299.1079 710.8434,311.0901 722.9171,316.1926 734.8301,304.3552 737.5244,284.5262 722.7446,268.9811 716.6905,261.7087 719.8207,252.9856 704.181,245.5003 Z M 720.4404,314.4504 C 712.8958,304.8738 709.0889,290.6431 715.2689,278.289 713.1479,292.7449 716.9547,306.9755 723.7885,311.2803 722.6075,312.5843 721.1284,313.4275 720.4404,314.4504 Z"
           style="stroke-linejoin:round;fill-rule:evenodd;stroke:#009340;stroke-linecap:round;stroke-miterlimit:10.433;stroke-width:0.6043;fill:#ffed00;" />
        <path
           id="path32"
           d="M 649.0489,208.9779 C 655.9935,214.374 656.0651,218.1605 656.9112,221.7856 656.988,224.2024 653.9563,230.0036 656.9568,232.4198 656.8539,236.8508 655.2125,238.8652 658.7206,243.4565 659.7815,258.4409 669.2905,267.8646 681.7491,270.4398 690.3975,257.3868 688.5777,238.4551 671.252,226.8579 664.2202,221.784 665.1132,213.083 649.0489,208.9779 Z M 679.0871,269.4737 C 670.173,261.9028 663.3417,249.3365 666.2249,237.3321 667.7219,250.7051 674.2968,262.8686 681.5083,265.9284 L 679.0871,269.4737 Z"
           style="stroke-linejoin:round;fill-rule:evenodd;stroke:#009340;stroke-linecap:round;stroke-miterlimit:10.433;stroke-width:0.9822;fill:#ffed00;" />
        <path
           id="path34"
           d="M 710.9418,376.6974 C 711.7138,386.0939 715.4334,388.2615 717.7487,391.8684 719.7603,393.7932 727.8192,394.3925 728.2495,398.8239 733.0191,401.6871 735.9542,401.558 738.3961,407.9142 752.528,417.5711 755.2611,432.7091 749.1509,444.9513 731.2366,444.0435 713.7394,430.0843 714.0423,407.1836 713.1818,398.3208 704.6926,393.29 710.9418,376.6974 Z M 750.2515,441.83 C 748.7836,429.6032 740.5724,415.8715 727.5287,410.1933 739.8641,420.1411 747.0251,433.1772 744.9506,442.169 746.7471,441.8781 748.455,442.1209 750.2515,441.83 Z"
           style="stroke-linejoin:round;fill-rule:evenodd;stroke:#009340;stroke-linecap:round;stroke-miterlimit:10.433;stroke-width:0.6043;fill:#ffed00;" />
        <path
           id="path36"
           d="M 690.3283,332.2368 C 693.918,340.4667 698.2374,342.0524 701.4979,344.3294 704.0245,345.6169 711.3569,344.0605 713.1518,348.1755 718.0415,349.6825 720.8113,348.7553 724.5625,354.2364 740.6176,360.2023 747.2246,372.924 745.1132,385.7573 728.2488,389.7187 708.1994,380.4865 702.1585,360.0523 699.0573,351.2096 688.7894,348.8083 690.3283,332.2368 Z M 745.2746,383.0085 C 740.6239,371.6529 729.0475,360.707 715.3577,358.7776 729.1314,365.058 740.0557,375.5485 740.2235,384.2503 742.423,383.4017 743.5636,383.2444 745.2746,383.0085 Z"
           style="stroke-linejoin:round;fill-rule:evenodd;stroke:#009340;stroke-linecap:round;stroke-miterlimit:10.433;stroke-width:0.6043;fill:#ffed00;" />
        <path
           id="path38"
           d="M 657.0933,294.0106 C 662.8219,301.6076 666.6857,301.6827 670.5179,302.9645 673.3388,303.5022 679.5967,300.7261 682.3543,303.6774 686.9846,304.0088 689.592,302.8521 695.1705,306.3411 710.8391,308.3359 721.1348,318.6778 722.6283,330.5391 707.9949,338.2234 686.6846,335.1532 675.2906,317.5457 670.3284,310.205 660.2698,310.4926 657.0933,294.0106 Z M 721.925,327.8692 C 714.1736,318.7841 700.4408,311.756 687.2533,313.4316 702.4004,315.6576 714.8453,322.6607 717.998,330.2076 719.5625,329.5136 720.6055,329.0509 721.925,327.8692 Z"
           style="stroke-linejoin:round;fill-rule:evenodd;stroke:#009340;stroke-linecap:round;stroke-miterlimit:10.433;stroke-width:0.6043;fill:#ffed00;" />
        <path
           id="path40"
           d="M 613.6176,265.7152 C 620.6641,270.9943 624.64,270.2962 628.6034,270.3408 631.1476,269.9237 636.6054,265.9738 639.7386,268.2375 644.3537,267.2495 646.1302,265.3381 651.6414,267.6286 667.5326,265.5788 679.3102,272.3969 684.5176,283.3008 672.6055,293.8637 652.4312,296.0138 636.803,282.467 630.0761,277.0429 621.1529,279.6167 613.6176,265.7152 Z M 682.9698,281.0549 C 673.2507,274.4086 658.7254,270.6796 646.7475,275.7447 661.0409,274.4198 675.093,277.995 679.7489,283.99 L 682.9698,281.0549 Z"
           style="stroke-linejoin:round;fill-rule:evenodd;stroke:#009340;stroke-linecap:round;stroke-miterlimit:10.433;stroke-width:0.9822;fill:#ffed00;" />
        <path
           id="path42"
           d="M 587.0229,220.7114 C 592.9196,227.1089 596.962,227.1008 600.8477,227.8214 603.4285,227.8454 609.5596,224.8907 612.1978,227.6531 616.9246,227.4688 619.0419,225.8914 624.0115,229.0861 640.0243,229.7825 650.2703,238.5019 653.2659,250.1199 639.507,258.4794 619.2663,257.1506 606.5456,241.1529 600.991,234.6673 591.7228,235.6763 587.0229,220.7114 Z M 652.182,247.6458 C 643.9252,239.4468 630.3785,233.2977 617.6242,236.2364 631.9261,237.3732 645.0378,243.2901 648.4464,249.9839 L 652.182,247.6458 Z"
           style="stroke-linejoin:round;fill-rule:evenodd;stroke:#009340;stroke-linecap:round;stroke-miterlimit:10.433;stroke-width:0.9822;fill:#ffed00;" />
        <path
           id="path44"
           d="M 646.4306,245.9178 C 650.1623,254.0917 654.5463,255.027 657.9007,257.3743 661.1295,257.7793 668.2685,256.7485 669.8975,259.6499 674.5183,261.7707 677.1622,260.5612 681.4496,264.952 697.4969,270.4328 705.2791,281.812 704.1968,294.7761 687.5118,299.2329 667.5397,292.4891 659.8249,272.2567 655.7452,263.6538 646.4069,262.8676 646.4306,245.9178 Z M 703.8342,291.6483 C 698.3624,281.3295 686.3219,270.9573 672.3774,270.7491 686.4622,275.5984 697.8066,285.1127 699.5759,292.6552 700.8423,292.4288 702.5678,291.8747 703.8342,291.6483 Z"
           style="stroke-linejoin:round;fill-rule:evenodd;stroke:#009340;stroke-linecap:round;stroke-miterlimit:10.433;stroke-width:0.6043;fill:#ffed00;" />
        <path
           id="path46"
           d="M 696.0818,284.3804 C 697.1195,293.7535 700.9753,295.9133 703.9317,298.9406 706.8651,300.2611 714.1754,301.8555 714.9548,305.5991 718.9997,308.2682 722.4543,307.7028 724.7234,313.8134 739.4363,323.8294 742.9092,338.1155 737.7942,350.6562 719.3869,350.4277 701.7176,337.3845 700.6846,314.8667 699.6469,305.4936 690.1135,301.202 696.0818,284.3804 Z M 738.4814,347.5728 C 736.4983,335.6537 727.5599,321.4517 714.1938,316.707 726.8957,326.2418 734.9116,339.6044 733.5602,347.4779 734.8378,347.629 737.2038,347.4218 738.4814,347.5728 Z"
           style="stroke-linejoin:round;fill-rule:evenodd;stroke:#009340;stroke-linecap:round;stroke-miterlimit:10.433;stroke-width:0.6043;fill:#ffed00;" />
        <path
           id="path48"
           d="M 729.7928,334.3554 C 727.8806,344.1529 730.9114,347.8163 732.7906,351.5244 735.1804,353.5922 742.2414,357.0988 741.8176,360.8965 745.4458,365.0768 748.3463,365.5042 749.2043,372.4931 760.7298,386.6296 759.6322,402.3373 750.8546,413.4822 732.1701,407.7267 718.1897,389.9044 724.1649,366.4446 726.6528,356.6247 718.3101,349.9268 729.7928,334.3554 Z M 752.4732,410.7184 C 754.2551,397.6849 749.5517,381.1224 737.0919,372.424 746.8467,385.549 750.9309,401.0552 747.2264,409.3019 748.3779,409.2571 750.7243,410.2462 752.4732,410.7184 Z"
           style="stroke-linejoin:round;fill-rule:evenodd;stroke:#009340;stroke-linecap:round;stroke-miterlimit:10.433;stroke-width:0.6043;fill:#ffed00;" />
        <path
           id="path50"
           d="M 756.8911,391.5952 C 750.8427,400.4336 751.8953,405.4259 752.0758,409.5327 753.2048,412.8192 759.5134,418.5121 757.3352,422.3636 758.7212,428.0512 761.2085,429.507 759.0823,436.2648 763.3688,454.5281 756.1427,469.3039 743.2228,476.8713 727.3748,464.3446 721.2923,441.4042 737.5162,421.1416 744.103,412.4934 738.8957,402.5686 756.8911,391.5952 Z M 745.8631,474.9156 C 753.3463,462.5408 756.1362,445.0434 747.4411,431.5769 751.2656,447.9443 748.6807,464.9365 741.6318,471.6889 742.7088,472.0691 743.9142,473.6499 745.8631,474.9156 Z"
           style="stroke-linejoin:round;fill-rule:evenodd;stroke:#009340;stroke-linecap:round;stroke-miterlimit:10.433;stroke-width:0.6043;fill:#ffed00;" />
        <path
           id="path52"
           d="M 750.5992,449.9885 C 741.9839,457.5065 741.6204,462.5888 740.7898,467.3567 741.3086,470.3694 745.486,477.8425 741.9828,481.4771 742.5534,487.1882 745.0184,489.5134 739.9581,496.0951 740.4502,515.7366 727.9163,529.2732 712.5544,533.5816 700.1258,516.559 700.4642,492.1496 722.7291,475.1753 731.4741,468.4105 729.0614,456.7983 750.5992,449.9885 Z M 715.9798,531.8921 C 726.9566,521.3026 734.6901,503.8688 730.02,488.7395 729.3186,506.2459 721.4554,522.9265 712.3212,527.4318 713.2553,528.0606 714.4489,530.1957 715.9798,531.8921 Z"
           style="stroke-linejoin:round;fill-rule:evenodd;stroke:#009340;stroke-linecap:round;stroke-miterlimit:10.433;stroke-width:0.6043;fill:#ffed00;" />
        <path
           id="path54"
           d="M 732.0169,506.095 C 720.8255,511.3213 719.4278,516.3911 717.0443,521.0179 716.1104,524.2448 718.1926,532.9299 713.3282,535.302 711.9435,541.2893 713.4581,544.4771 707.1635,549.6252 700.5871,569.4614 684.5638,579.3535 666.9284,579.1764 659.787,559.1006 668.7404,534.179 696.0202,523.6481 707.2181,518.8806 709.008,506.9215 732.0169,506.095 Z M 670.8395,578.6551 C 685.4262,571.0802 698.9297,556.1808 699.1791,539.199 692.5703,556.7413 679.55,571.1741 668.8028,573.1813 L 670.8395,578.6551 Z"
           style="stroke-linejoin:round;fill-rule:evenodd;stroke:#009340;stroke-linecap:round;stroke-miterlimit:10.433;stroke-width:0.7109;fill:#ffed00;" />
        <g
           id="g80">
          <path
             id="path56"
             d="M 547.8997,473.0133 C 534.5048,428.2337 536.5892,381.7748 567.1124,329.1588 562.4928,385.6931 584.9533,419.2778 589.2979,462.3782 L 567.9525,453.4222 547.8997,473.0133 Z"
             style="stroke-linejoin:round;fill-rule:evenodd;stroke:#2d2c2b;stroke-linecap:round;stroke-miterlimit:10.433;stroke-width:0.72;fill:#ffffff;" />
          <path
             id="path58"
             d="M 563.8268,445.0751 L 559.8923,450.6725 C 553.8388,422.6853 553.6668,392.459 559.2495,357.1951 554.9141,393.5785 560.1764,430.5217 570.5346,447.8738 L 563.8268,445.0751 Z"
             style="fill-rule:evenodd;fill:#2d2c2b;" />
          <path
             id="path60"
             d="M 554.355,498.0211 C 555.1054,501.3796 557.0776,505.2978 556.6314,508.6563 554.0814,526.989 544.6175,538.3889 532.654,547.2787 L 550.2323,552.3164 562.8062,565.7503 C 579.5074,564.6308 592.8171,528.2474 592.6451,498.0211 L 554.355,498.0211 Z"
             style="fill-rule:evenodd;fill:#e31c2a;" />
          <path
             id="path62"
             d="M 557.2812,500.2337 L 557.4241,500.6796 C 558.2882,503.366 559.1871,506.1603 558.8178,508.9425 L 558.8143,508.9599 558.8178,508.9599 C 557.4938,518.4787 554.3615,526.2172 550.0062,532.7344 546.4993,537.9816 542.2068,542.4205 537.4299,546.349 L 550.8372,550.1903 C 551.3006,550.3227 551.6873,550.5927 551.9661,550.9464 L 563.6504,563.432 C 570.3174,562.3136 576.5071,554.4985 581.2805,543.6644 586.7333,531.2867 590.1896,515.1322 590.4283,500.2337 L 557.2812,500.2337 Z M 553.2221,502.028 C 552.8667,500.927 552.5166,499.8365 552.2535,498.7163 552.1821,498.4985 552.142,498.2633 552.142,498.0212 552.142,496.8 553.1333,495.8087 554.3545,495.8087 L 592.6443,495.8087 592.6443,495.8174 C 593.8568,495.8192 594.8445,496.8 594.848,498.0125 594.9403,514.1165 591.275,531.94 585.3257,545.4448 579.6778,558.2632 571.847,567.3588 562.9518,567.9546 L 562.9518,567.9476 C 562.3159,567.9894 561.6661,567.756 561.1975,567.2542 L 549.0515,554.2755 532.0503,549.4046 532.0521,549.3994 C 531.5991,549.2722 531.1845,548.9987 530.8831,548.5928 530.1584,547.6155 530.364,546.2322 531.3413,545.5075 537.1373,541.2028 542.3183,536.2987 546.3408,530.2815 550.3407,524.2974 553.2204,517.1635 554.4451,508.3536 L 554.4468,508.3536 C 554.6785,506.5593 553.9364,504.2475 553.2221,502.028 Z"
             style="fill-rule:evenodd;fill:#20221d;" />
          <path
             id="path64"
             d="M 571.4444,507.7989 C 570.9575,523.4718 566.1305,535.7862 554.621,545.8616"
             style="fill-rule:evenodd;fill:#ffffff;" />
          <path
             id="path66"
             d="M 569.2408,507.7387 C 569.2739,506.5227 570.2895,505.5628 571.5055,505.5959 572.7215,505.629 573.6814,506.6446 573.6483,507.8606 573.3957,515.9823 572.0125,523.2504 569.1972,529.8024 566.3663,536.3911 562.0895,542.2533 556.0722,547.5197 555.1576,548.321 553.7639,548.2269 552.9626,547.3123 552.1612,546.3977 552.2553,545.004 553.1699,544.2027 558.6575,539.3997 562.5563,534.0584 565.1347,528.0568 567.7304,522.017 569.0074,515.2837 569.2408,507.7387 Z"
             style="fill-rule:evenodd;fill:#20221d;" />
          <path
             id="path68"
             d="M 591.7878,491.123 L 539.7372,491.123"
             style="fill-rule:evenodd;fill:#ffffff;" />
          <path
             id="path70"
             d="M 591.7871,488.4675 C 593.2522,488.4675 594.4421,489.6573 594.4421,491.1224 594.4421,492.5876 593.2522,493.7774 591.7871,493.7774 L 539.7365,493.7774 C 538.2714,493.7774 537.0815,492.5876 537.0815,491.1224 537.0815,489.6573 538.2714,488.4675 539.7365,488.4675 L 591.7871,488.4675 Z"
             style="fill-rule:evenodd;fill:#ffffff;" />
          <path
             id="path72"
             d="M 591.7871,486.9309 C 592.9456,486.9309 593.9944,487.4031 594.7505,488.1591 L 594.747,488.1626 C 595.5065,488.9222 595.9786,489.9727 595.9786,491.1224 595.9786,492.2722 595.5065,493.3245 594.747,494.0823 L 594.7505,494.0858 C 593.9944,494.8418 592.9456,495.314 591.7871,495.314 L 539.7365,495.314 C 538.578,495.314 537.5292,494.8418 536.7732,494.0858 L 536.7766,494.0823 C 536.0171,493.3245 535.545,492.2722 535.545,491.1224 535.545,489.9727 536.0171,488.9222 536.7766,488.1626 L 536.7732,488.1591 C 537.5292,487.4031 538.578,486.9309 539.7365,486.9309 L 591.7871,486.9309 Z M 592.5763,490.3333 C 592.3742,490.1312 592.0937,490.004 591.7871,490.004 L 539.7365,490.004 C 539.4299,490.004 539.1494,490.1312 538.9473,490.3333 L 538.9403,490.3333 C 538.7417,490.5301 538.6181,490.8124 538.6181,491.1224 538.6181,491.4325 538.7417,491.7148 538.9403,491.9116 L 538.9473,491.9116 C 539.1494,492.1137 539.4299,492.2409 539.7365,492.2409 L 591.7871,492.2409 C 592.0937,492.2409 592.3742,492.1137 592.5763,491.9116 L 592.5833,491.9116 C 592.7819,491.7148 592.9056,491.4325 592.9056,491.1224 592.9056,490.8124 592.7819,490.5301 592.5833,490.3333 L 592.5763,490.3333 Z"
             style="fill-rule:evenodd;fill:#ffffff;" />
          <path
             id="path74"
             d="M 591.2958,480.2572 L 548.54,480.2572"
             style="fill-rule:evenodd;fill:#ffffff;" />
          <path
             id="path76"
             d="M 591.2959,477.602 C 592.761,477.602 593.9508,478.7918 593.9508,480.2569 593.9508,481.722 592.761,482.9119 591.2959,482.9119 L 548.5394,482.9119 C 547.0742,482.9119 545.8844,481.722 545.8844,480.2569 545.8844,478.7918 547.0742,477.602 548.5394,477.602 L 591.2959,477.602 Z"
             style="fill-rule:evenodd;fill:#ffffff;" />
          <path
             id="path78"
             d="M 558.0413,472.5606 L 568.6816,462.1653 589.0579,470.4815 558.0413,472.5606 Z"
             style="fill-rule:evenodd;fill:#ffffff;" />
        </g>
        <path
           id="path82"
           d="M 785.0146,758.7953 L 909.8452,350.207 566.929,94.6139 224.0128,350.207 348.8435,758.7953 785.0146,758.7953 Z M 774.2031,742.6408 L 359.655,742.6408 241.0803,353.6859 566.929,110.9356 892.7778,353.6859 774.2031,742.6408 Z"
           style="fill-rule:evenodd;fill:#ffed00;" />
        <path
           id="path84"
           d="M 448.6696,577.9438 C 445.4049,573.6408 442.1733,569.134 439.0027,564.439 413.9982,527.4227 392.5668,478.4887 387.7621,425.5165 382.9347,372.2812 394.856,315.0739 436.6665,261.8891 454.5893,239.0902 479.4143,219.1466 509.4326,198.6611 512.0649,196.8685 515.1798,195.0184 517.8121,198.4155 521.866,203.6627 513.638,207.3734 510.3994,209.6747 486.82,226.4216 467.6394,244.0448 452.2688,262.187 455.976,261.6522 459.8139,261.5303 463.6953,261.5338 450.9884,268.5283 441.6298,277.9165 433.2137,287.9789 L 433.2398,287.7995 C 386.4451,355.8427 386.0548,465.7853 436.1404,536.4015 429.5117,517.646 416.1044,481.797 413.3258,461.6216 404.6849,398.8744 416.702,332.1936 462.502,280.4112 470.8658,270.9551 475.6444,280.4931 467.6551,289.789 461.6187,296.8114 456.2791,304.1404 451.5824,311.7134 454.821,311.1768 458.1763,311.0531 461.5664,311.0566 454.2653,315.6645 448.2324,321.3124 442.8667,327.5073 422.7802,368.6977 419.3587,415.5638 425.4752,459.9875 430.6092,497.2686 443.3423,533.0933 460.6518,563.1132 448.2149,533.2797 440.4887,503.7039 437.4749,474.386 432.7381,428.2934 438.3964,387.6814 456.8628,343.5626 458.1606,340.4547 460.84,331.995 464.9845,331.8678 471.8187,331.657 464.8085,344.5643 463.9444,346.7942 462.4549,350.6338 461.0821,354.4803 459.8191,358.3304 464.3538,356.3949 469.3415,356.0779 474.4214,356.0831 466.7631,360.9157 460.7076,367.0636 455.3419,373.7759 435.3443,452.8884 448.5076,534.1838 494.6334,600.4344 499.7865,607.8401 503.3787,614.6047 495.5236,622.5435 490.4192,627.7018 482.7957,619.4059 476.3482,614.2127 440.8336,585.6178 391.5634,573.6129 354.1987,512.465 328.8563,472.8878 319.435,422.8632 333.7882,372.9136 334.4467,370.6053 335.201,369.2848 337.9466,368.9938 341.7618,368.5932 340.2984,373.7149 339.8699,375.6469 337.802,384.8871 336.539,393.9129 336.0007,402.7175 339.4552,398.2421 343.5039,397.6271 347.6501,397.6341 342.8959,403.113 339.1225,410.057 335.7777,417.6456 336.8055,450.392 347.8278,479.8824 364.5224,505.838 378.0777,526.9123 396.1016,545.8908 417.1166,562.8241 399.2809,542.0773 383.5915,518.0589 371.726,492.0858 345.7808,435.2897 344.1886,368.8701 367.6791,307.7675 369.2679,303.6335 371.5936,297.4699 377.5725,300.3096 382.5166,302.6544 377.5586,310.0775 376.2311,313.121 373.4803,319.4239 371.118,325.7739 369.1216,332.1553 372.9141,330.6083 376.9959,330.3313 381.1439,330.3365 374.7103,335.3241 369.4839,341.5278 364.8482,348.3255 354.5541,395.7439 363.2942,444.1535 382.8651,486.9954 399.0109,522.3375 422.4666,553.8592 448.6696,577.9438 Z"
           style="fill-rule:evenodd;fill:#009340;" />
        <path
           id="path86"
           d="M 339.9465,405.6896 C 343.8907,405.6896 347.0892,410.0988 347.0892,415.5359 347.0892,420.9731 343.8907,425.3823 339.9465,425.3823 338.3002,425.3823 336.7846,424.6123 335.5773,423.3232 334.9171,417.5272 334.661,412.9385 334.8265,408.6738 336.1243,406.8341 337.9379,405.6896 339.9465,405.6896 Z"
           style="fill-rule:evenodd;fill:#5d2f2a;" />
        <path
           id="path88"
           d="M 368.2418,338.4896 C 374.0622,338.4896 378.7833,344.9963 378.7833,353.0222 378.7833,361.0463 374.0622,367.5531 368.2418,367.5531 365.8238,367.5531 363.5974,366.4312 361.8187,364.5428 362.6793,352.7365 363.7507,345.6601 366.1304,338.7805 366.8133,338.5906 367.5188,338.4896 368.2418,338.4896 Z"
           style="fill-rule:evenodd;fill:#5d2f2a;" />
        <path
           id="path90"
           d="M 450.1383,265.5485 C 455.3283,268.1831 456.5927,276.1221 452.9598,283.2787 449.3276,290.4337 442.1726,294.0987 436.9826,291.4641 434.8265,290.3695 433.3491,288.3613 432.6178,285.8723 438.7294,275.7344 442.8879,269.9094 448.1239,264.8521 448.8188,264.9919 449.4937,265.2212 450.1383,265.5485 Z"
           style="fill-rule:evenodd;fill:#5d2f2a;" />
        <path
           id="path92"
           d="M 449.5291,319.3796 C 455.0723,320.9988 457.5846,327.9662 455.1375,334.9402 452.6908,341.9127 446.2106,346.2533 440.6674,344.6341 438.3645,343.9614 436.5861,342.3672 435.468,340.2314 439.8874,330.2119 443.0654,324.361 447.4295,319.0451 448.1378,319.07 448.8405,319.1785 449.5291,319.3796 Z"
           style="fill-rule:evenodd;fill:#5d2f2a;" />
        <path
           id="path94"
           d="M 460.4408,357.881 C 465.9533,358.3135 469.6718,364.352 468.7433,371.3675 467.815,378.3815 462.5909,383.7183 457.0785,383.2858 454.7884,383.1061 452.8096,381.9599 451.3435,380.177 453.5244,369.921 455.3578,363.815 458.4075,357.9784 459.0762,357.8631 459.7561,357.8272 460.4408,357.881 Z"
           style="fill-rule:evenodd;fill:#5d2f2a;" />
        <g
           id="g124">
          <g
             id="g104">
            <path
               id="path96"
               d="M 399.6276,577.6668 C 438.5793,595.6262 452.8768,634.348 479.5032,662.6903 484.4333,668.9514 489.3635,675.2126 494.2936,681.4737 485.3166,688.5797 476.336,695.6858 467.3607,702.7918 458.3296,709.938 453.6381,713.9674 441.2796,710.9588 424.815,706.9433 418.8953,687.132 411.4164,673.7265 397.72,649.1681 382.2867,624.958 363.6339,601.3943 381.879,601.6399 396.5075,610.0421 409.4879,622.155 409.1587,604.3576 403.4533,591.4556 399.6276,577.6668 Z"
               style="fill-rule:evenodd;fill:#20221d;" />
            <g
               id="g102">
              <path
                 id="path98"
                 d="M 405.2529,584.4837 C 409.0263,596.9188 412.7073,607.8314 412.9721,622.0905 L 413.1237,630.3132 407.1099,624.7019 C 396.6259,614.9183 385.0723,607.6397 371.2487,605.5109 387.3405,626.5747 401.5369,648.8597 414.4599,672.0297 421.0973,683.9283 427.3393,703.973 442.1036,707.5739 453.1172,710.255 456.8924,706.6314 465.1987,700.0602 473.2664,693.6719 481.3376,687.2853 489.4053,680.8988 485.2242,675.5871 481.0414,670.2754 476.8586,664.9637 451.7532,638.1858 437.8651,603.1765 405.2529,584.4837 Z"
                 style="fill-rule:evenodd;fill:#ffffff;" />
              <path
                 id="path100"
                 d="M 411.3328,592.5845 C 414.0592,601.8612 416.249,610.9062 416.4546,622.026 L 416.7595,638.4715 404.7337,627.2489 C 397.1974,620.216 389.0948,614.5054 379.9035,611.2685 393.7044,630.1181 406.0978,649.8823 417.5016,670.3312 423.3986,680.9023 429.9594,701.0253 442.9294,704.189 452.6451,706.553 455.6398,703.1803 463.035,697.3286 470.1968,691.6598 477.3569,685.991 484.5187,680.3239 481.0833,675.9617 477.6496,671.5994 474.2141,667.2372 451.8821,643.3616 437.8059,611.7772 411.3328,592.5845 Z"
                 style="fill-rule:evenodd;fill:#e31c2a;" />
            </g>
          </g>
          <g
             id="g114">
            <path
               id="path106"
               d="M 739.8365,577.6668 C 700.8848,595.6262 686.5873,634.348 659.961,662.6903 655.0308,668.9514 650.1007,675.2126 645.1705,681.4737 654.1476,688.5797 663.1281,695.6858 672.1035,702.7918 681.1345,709.938 685.826,713.9674 698.1845,710.9588 714.6492,706.9433 720.5689,687.132 728.0477,673.7265 741.7442,649.1681 757.1775,624.958 775.8302,601.3943 757.5851,601.6399 742.9567,610.0421 729.9762,622.155 730.3055,604.3576 736.0109,591.4556 739.8365,577.6668 Z"
               style="fill-rule:evenodd;fill:#20221d;" />
            <g
               id="g112">
              <path
                 id="path108"
                 d="M 734.2113,584.4837 C 730.4379,596.9188 726.7568,607.8314 726.492,622.0905 L 726.3405,630.3132 732.3542,624.7019 C 742.8382,614.9183 754.3918,607.6397 768.2155,605.5109 752.1236,626.5747 737.9272,648.8597 725.0043,672.0297 718.3668,683.9283 712.1249,703.973 697.3605,707.5739 686.3469,710.255 682.5718,706.6314 674.2654,700.0602 666.1977,693.6719 658.1265,687.2853 650.0588,680.8988 654.2399,675.5871 658.4227,670.2754 662.6055,664.9637 687.711,638.1858 701.5991,603.1765 734.2113,584.4837 Z"
                 style="fill-rule:evenodd;fill:#ffffff;" />
              <path
                 id="path110"
                 d="M 728.1313,592.5845 C 725.4049,601.8612 723.2151,610.9062 723.0095,622.026 L 722.7047,638.4715 734.7304,627.2489 C 742.2668,620.216 750.3693,614.5054 759.5607,611.2685 745.7597,630.1181 733.3664,649.8823 721.9625,670.3312 716.0655,680.9023 709.5047,701.0253 696.5348,704.189 686.819,706.553 683.8243,703.1803 676.4291,697.3286 669.2673,691.6598 662.1073,685.991 654.9455,680.3239 658.3809,675.9617 661.8146,671.5994 665.25,667.2372 687.5821,643.3616 701.6583,611.7772 728.1313,592.5845 Z"
                 style="fill-rule:evenodd;fill:#e31c2a;" />
            </g>
          </g>
          <path
             id="path116"
             d="M 462.2459,624.1323 C 525.0401,642.1509 614.4241,642.1509 677.2183,624.1323 680.4847,640.5115 687.7458,658.1312 695.4163,673.2701 703.3359,688.9003 684.455,689.2957 670.884,691.0657 595.233,700.9591 544.2311,700.9591 468.5802,691.0657 455.0092,689.2957 436.1282,688.9003 444.0478,673.2701 451.7183,658.1312 458.9794,640.5115 462.2459,624.1323 Z"
             style="fill-rule:evenodd;fill:#20221d;" />
          <g
             id="g122">
            <path
               id="path118"
               d="M 674.5912,628.484 C 612.3875,645.4156 527.0766,645.4156 464.873,628.484 461.2198,644.3546 454.4343,660.4778 447.1557,674.845 446.2568,676.6184 444.9572,679.6776 446.1157,681.6235 448.7254,686.0049 463.9357,686.9456 469.0314,687.6111 502.5216,691.9908 535.9317,695.0011 569.7321,695.0011 603.5324,695.0011 636.9425,691.9908 670.4328,687.6111 672.8595,687.2941 675.295,687.038 677.7235,686.7366 681.408,686.2819 691.2475,685.1495 693.3484,681.6235 694.5069,679.6776 693.2073,676.6184 692.3084,674.845 685.0299,660.4778 678.2444,644.3546 674.5912,628.484 Z"
               style="fill-rule:evenodd;fill:#ffffff;" />
            <path
               id="path120"
               d="M 672.0477,632.7644 C 610.7343,648.635 528.7299,648.635 467.4164,632.7644 463.5542,647.7709 457.1415,662.8471 450.2637,676.4198 449.9379,677.0627 448.9658,679.1166 449.1261,679.8849 450.8873,682.4231 465.9444,683.6949 469.4826,684.1565 502.823,688.5153 536.0833,691.5169 569.7321,691.5169 603.3809,691.5169 636.6411,688.5153 669.9816,684.1565 673.5198,683.6949 688.5768,682.4231 690.3381,679.8849 690.4984,679.1166 689.5263,677.0627 689.2005,676.4198 682.3227,662.8471 675.91,647.7709 672.0477,632.7644 Z"
               style="fill-rule:evenodd;fill:#e31c2a;" />
          </g>
        </g>
        <path
           id="path126"
           d="M 566.9291,425.1966 L 567.0286,758261.4316 C 566.7698,774553.0467 566.5728,808102.7289 566.4365,858496.2843 566.2168,940092.4247 566.1082,1057723.4089 566.1082,1210146.656 566.1082,1323635.7042 566.1638,1411306.6842 566.2763,1473021.5315 566.3886,1534322.1852 566.5187,1564834.4476 566.6664,1564834.4476 566.8067,1564834.4476 566.9328,1535978.9597 567.0439,1477301.5321 567.1551,1418486.04 567.2599,1282768.6017 567.3583,1069182.7654 567.5238,719879.4907 567.7421,470811.0688 568.0162,321977.4996 568.29,171901.3496 568.6387,96932.3068 569.0628,96932.3068 569.342,96932.3068 569.6059,135314.2477 569.8534,212216.1939 570.1008,288980.0756 570.2953,404125.8982 570.4379,558482.0488 570.5793,712700.1349 570.6502,923938.8741 570.6502,1192198.2664 570.6502,1521620.248 570.5212,1773173.8315 570.2638,1945892.5654 570.0061,2118749.3637 569.5957,2221469.3781 569.0339,2254466.802 L 568.9417,1503671.8584 C 569.1855,1483928.6298 569.3635,1441818.9465 569.4746,1377618.9375 569.5843,1313971.1867 569.6399,1225747.9485 569.6399,1113501.4812 569.6399,1020584.0489 569.5997,950861.4585 569.5163,904195.6455 569.4341,857253.7035 569.3332,833920.797 569.2144,833920.797 569.1285,833920.797 569.0514,853111.7674 568.982,891493.7083 568.91,929323.391 568.8445,1018098.8872 568.7827,1159200.8425 568.6248,1507261.5363 568.4644,1756329.9582 568.3028,1906958.3664 568.1412,2057586.7745 567.9417,2167348.0802 567.7019,2235828.0898 567.4632,2304308.0993 567.1953,2339100.3623 566.8988,2339100.3623 566.5516,2339100.3623 566.2307,2292848.7429 565.9379,2201588.085 565.6436,2110465.4916 565.4214,1982479.6672 565.27,1818182.8701 565.1184,1654300.2665 565.0427,1447203.4634 565.0427,1197582.7833 565.0427,759504.0124 565.2193,455762.0344 565.5756,287185.2367 565.9302,118056.1808 566.3809,22515.5222 566.9291,425.1966 Z M 570.5578,2738244.9342 L 570.5578,4872308.4584 569.4001,4872308.4584 569.4001,3536396.0135 568.5375,3536396.0135 568.5375,4775663.2836 567.4314,4775663.2836 567.4314,3536396.0135 566.3633,3536396.0135 566.3633,4911380.7219 565.1348,4911380.7219 565.1348,2738244.9342 570.5578,2738244.9342 Z M 570.5578,5339794.9754 L 570.5578,6136841.5384 566.4708,6136841.5384 566.4708,7379698.4864 565.1348,7379698.4864 565.1348,5339794.9754 570.5578,5339794.9754 Z M 570.5578,7773458.5414 L 570.5578,8571609.6208 565.1348,8571609.6208 565.1348,7773458.5414 570.5578,7773458.5414 Z M 570.5578,9153827.7667 L 570.5578,10337316.9644 C 570.5578,10570093.7712 570.4909,10758551.862 570.3585,10902553.1725 570.2244,11046002.2248 570.0339,11164737.7253 569.785,11258345.4803 569.535,11352091.2999 569.2459,11419880.9868 568.9151,11462404.8637 568.5843,11504376.4825 568.2345,11525500.3564 567.8646,11525500.3564 567.2852,11525500.3564 566.8356,11494297.7714 566.5161,11431340.3432 566.1967,11368935.1732 565.9291,11281816.4513 565.7145,11170122.2422 565.4985,11059118.3557 565.3545,10939830.5971 565.2825,10811844.7727 565.1841,10637331.1999 565.1348,10478833.1133 565.1348,10337316.9644 L 565.1348,9153827.7667 570.5578,9153827.7667 Z M 569.3292,9950184.0071 L 566.367,9950184.0071 566.367,10145131.1311 C 566.367,10311913.0899 566.405,10430234.3968 566.4832,10500371.1808 566.5603,10570646.0293 566.6967,10625871.8435 566.89,10666186.6878 567.0831,10705811.2095 567.3974,10725554.4381 567.8317,10725554.4381 568.4063,10725554.4381 568.7989,10681097.6577 569.0112,10592322.1614 569.2232,10502856.3424 569.3292,10355127.2895 569.3292,10148720.809 L 569.3292,9950184.0071 Z M 566.03,13375012.873 L 566.03,12467652.7462 565.1348,12342842.4061 565.1348,11529090.0343 570.5578,12497612.7504 570.5578,13366038.6782 565.1348,14335251.717 565.1348,13501756.1166 566.03,13375012.873 Z M 567.203,13208230.9142 L 569.1526,12923127.6486 567.203,12639957.2864 567.203,13208230.9142 Z M 570.5578,14593294.3337 L 570.5578,15389650.5741 568.66,15389650.5741 568.66,16260423.5991 570.5578,16260423.5991 570.5578,17060507.5819 565.1348,17060507.5819 565.1348,16260423.5991 567.328,16260423.5991 567.328,15389650.5741 565.1348,15389650.5741 565.1348,14593294.3337 570.5578,14593294.3337 Z"
           style="fill-rule:evenodd;fill:#00539d;" />
      </g>
    </g>
  </g>
  <g
     id="g134" />
  <g
     id="g136" />
</svg>
